<?xml version="1.0" standalone="no"?>
<!DOCTYPE svg PUBLIC "-//W3C//DTD SVG 20010904//EN"
 "http://www.w3.org/TR/2001/REC-SVG-20010904/DTD/svg10.dtd">
<svg version="1.0" xmlns="http://www.w3.org/2000/svg"
 width="300.000000pt" height="300.000000pt" viewBox="0 0 300.000000 300.000000"
 preserveAspectRatio="xMidYMid meet">
<metadata>
Created by potrace 1.11, written by Peter Selinger 2001-2013
</metadata>
<g transform="translate(0.000000,300.000000) scale(0.100000,-0.100000)"
fill="#000000" stroke="none">
<path d="M1320 2989 c11 -7 7 -9 -17 -5 -18 2 -33 1 -33 -3 0 -5 -20 -7 -44
-6 -25 0 -43 -2 -40 -6 2 -4 0 -10 -6 -14 -5 -3 -10 0 -10 7 0 8 -3 9 -8 3 -4
-6 -16 -11 -27 -10 -11 0 -26 -7 -33 -15 -12 -13 -13 -13 -6 0 6 12 4 13 -7 3
-7 -7 -25 -13 -40 -13 -15 0 -29 -5 -31 -11 -2 -5 -18 -11 -36 -11 -20 -1 -31
-5 -29 -12 3 -7 -3 -12 -12 -13 -39 -3 -57 -9 -69 -20 -7 -7 -20 -13 -28 -13
-8 0 -14 -5 -14 -10 0 -6 -8 -10 -17 -8 -11 2 -17 -2 -15 -10 1 -8 -2 -11 -9
-6 -6 3 -14 2 -18 -4 -3 -6 -13 -12 -21 -14 -8 -2 -23 -12 -32 -22 -10 -10
-18 -15 -18 -11 0 5 -7 0 -16 -11 -8 -10 -13 -12 -9 -4 4 8 -3 4 -14 -10 -18
-21 -20 -22 -15 -5 4 12 -3 7 -17 -12 -13 -18 -31 -33 -40 -33 -8 0 -25 -11
-37 -25 -12 -14 -28 -25 -34 -25 -9 0 -8 -3 2 -10 13 -8 13 -10 -2 -10 -19 0
-125 -99 -121 -112 2 -5 -4 -8 -12 -8 -8 0 -15 -5 -15 -10 0 -6 -11 -21 -24
-33 -23 -22 -26 -27 -26 -47 0 -5 -7 -10 -15 -10 -8 0 -15 -7 -15 -15 0 -8 -4
-15 -9 -15 -5 0 -13 -9 -16 -20 -3 -11 -14 -20 -23 -20 -14 0 -15 -2 -2 -10
12 -8 12 -10 -3 -16 -9 -3 -14 -10 -11 -15 3 -5 0 -9 -5 -9 -6 0 -10 -3 -9 -7
2 -11 -36 -73 -45 -73 -5 0 -5 -5 -2 -11 4 -5 -1 -19 -10 -29 -11 -12 -15 -26
-11 -37 4 -9 4 -14 0 -11 -9 10 -32 -15 -27 -29 3 -7 -1 -13 -8 -13 -11 0 -11
-3 1 -10 11 -7 11 -10 2 -10 -7 0 -10 -4 -7 -10 3 -5 1 -10 -4 -10 -6 0 -11
-9 -11 -21 0 -12 -4 -17 -11 -13 -7 4 -7 -1 1 -16 10 -18 9 -21 -1 -15 -9 6
-11 4 -6 -8 3 -9 0 -18 -9 -21 -8 -3 -14 -11 -14 -18 0 -9 3 -8 10 2 14 22 12
3 -3 -23 -7 -12 -13 -31 -12 -42 0 -11 -6 -26 -15 -33 -8 -8 -9 -11 -2 -7 6 3
12 1 12 -4 0 -6 -4 -11 -8 -11 -4 0 -8 -12 -8 -27 -1 -16 -4 -37 -8 -48 -6
-16 -6 -17 3 -5 7 9 11 10 11 3 0 -6 -5 -15 -11 -18 -6 -4 -8 -13 -5 -21 3 -8
1 -14 -4 -14 -6 0 -10 -5 -10 -11 0 -5 6 -7 13 -3 9 6 9 5 0 -7 -15 -19 -13
-348 3 -342 12 4 12 -25 0 -45 -4 -7 -2 -12 4 -12 6 0 10 -6 9 -12 -4 -31 2
-69 9 -64 5 3 8 -11 7 -31 0 -20 5 -41 12 -48 6 -7 10 -15 8 -17 -8 -8 16 -79
25 -73 5 3 7 -8 5 -25 -3 -18 0 -28 5 -25 9 5 15 -15 11 -37 0 -5 3 -8 9 -8 5
0 10 -9 10 -20 0 -11 5 -20 12 -20 6 0 8 -3 5 -7 -4 -3 1 -12 11 -20 9 -8 11
-12 5 -8 -9 4 -11 1 -7 -9 3 -9 10 -16 16 -16 5 0 7 -4 3 -9 -3 -5 -1 -12 5
-16 6 -4 8 -11 5 -16 -3 -5 2 -6 11 -2 12 4 15 3 10 -5 -4 -7 -3 -12 3 -12 6
0 8 -6 5 -13 -2 -7 5 -23 16 -35 11 -12 17 -22 13 -22 -4 0 0 -5 9 -11 10 -5
18 -17 18 -24 0 -8 8 -15 18 -16 10 0 12 -3 5 -6 -9 -3 -3 -14 17 -34 19 -19
27 -35 23 -46 -5 -12 -3 -14 8 -9 8 4 6 1 -3 -7 -10 -8 -14 -18 -10 -22 4 -5
-2 -5 -13 -1 -11 4 -17 4 -13 1 8 -8 -74 -93 -84 -88 -4 2 -5 -3 -2 -12 5 -11
2 -14 -10 -9 -12 5 -15 2 -10 -10 4 -9 2 -16 -2 -14 -5 2 -25 -13 -44 -33 -33
-34 -46 -77 -28 -94 4 -4 1 -16 -5 -27 -9 -16 -9 -22 1 -25 6 -3 12 -10 12
-17 0 -17 56 -66 76 -66 8 0 12 -5 9 -10 -8 -13 18 -8 27 5 5 6 8 6 8 -1 0 -6
10 -10 23 -9 12 2 21 7 20 12 -1 6 9 9 22 7 16 -1 25 3 25 12 0 8 7 17 16 21
9 3 55 46 104 94 48 49 91 89 95 89 3 0 12 -6 19 -12 8 -7 24 -20 36 -28 12
-8 28 -19 34 -25 6 -5 23 -16 39 -24 15 -8 27 -18 27 -23 0 -4 9 -8 20 -8 11
0 20 -4 20 -9 0 -5 18 -16 40 -25 22 -9 40 -21 40 -27 0 -6 6 -9 13 -6 6 2 25
-5 41 -16 16 -12 26 -15 22 -8 -6 10 -3 10 15 -1 13 -7 27 -17 30 -21 3 -5 9
-8 13 -8 29 4 46 -1 40 -11 -5 -8 -2 -9 9 -5 9 3 19 2 23 -4 4 -6 11 -6 20 2
12 10 13 9 7 -7 -6 -17 -5 -17 10 -5 14 11 18 11 23 -2 3 -9 12 -13 20 -10 8
3 22 -1 32 -9 9 -8 31 -13 47 -13 17 1 38 -2 49 -8 14 -7 17 -6 10 5 -6 9 -1
8 17 -3 20 -14 58 -17 221 -18 177 -1 198 1 208 17 11 16 11 16 6 -1 -4 -12
-2 -17 6 -14 7 2 12 9 11 14 -1 5 4 10 12 10 8 0 12 -5 8 -10 -3 -5 4 -4 15 2
10 6 29 8 41 6 11 -2 21 1 21 7 0 6 3 8 7 5 3 -4 13 -1 21 6 13 10 14 9 7 -3
-6 -12 -5 -13 6 -2 7 6 22 12 34 12 12 0 27 6 34 12 11 11 12 10 6 -2 -6 -11
-3 -10 12 3 11 9 22 14 26 11 3 -3 16 1 28 9 11 9 28 13 35 10 8 -3 14 0 14 7
0 6 5 8 10 5 6 -3 10 -1 10 5 0 7 7 10 15 6 8 -3 19 2 24 12 6 9 11 13 11 8 0
-5 8 -2 17 5 15 12 16 12 8 -1 -4 -8 3 -5 17 8 13 12 32 22 41 22 9 0 20 8 26
18 5 9 11 16 13 14 6 -6 57 17 65 30 4 7 27 22 49 33 28 13 40 24 36 34 -3 9
-1 12 5 8 6 -4 18 0 26 8 9 8 20 15 26 15 6 0 11 7 11 15 0 8 4 14 8 13 4 -2
22 12 39 29 18 18 37 33 43 33 6 0 8 5 5 10 -3 6 1 10 9 10 9 0 15 6 14 13 -2
6 3 11 10 9 6 -1 11 2 10 6 -2 4 9 20 24 34 15 14 25 28 21 31 -3 4 1 7 10 7
9 0 17 5 17 11 0 6 6 17 13 24 29 33 37 45 37 55 0 5 7 10 16 10 8 0 13 4 10
8 -6 9 28 65 35 58 3 -3 5 4 6 15 1 10 9 26 17 35 9 9 14 19 11 24 -3 4 2 11
11 14 9 3 14 13 11 20 -3 8 1 17 9 20 8 3 14 15 14 26 0 11 5 20 11 20 5 0 7
5 4 10 -3 6 -2 10 4 10 5 0 8 9 6 20 -2 11 1 23 7 26 7 5 8 2 3 -6 -5 -8 -4
-11 3 -6 6 3 9 15 7 26 -2 11 1 20 7 20 6 0 8 3 5 7 -4 3 -2 12 5 20 6 7 8 16
5 20 -3 3 0 17 7 32 8 14 16 40 17 56 2 17 11 36 19 43 8 8 9 11 3 7 -7 -3
-13 -1 -13 4 0 6 4 11 9 11 4 0 8 17 8 38 0 93 3 117 13 102 13 -21 13 -3 -1
22 -8 15 -8 18 0 14 8 -5 10 44 9 168 -1 96 -6 173 -10 170 -5 -3 -5 -10 -2
-16 4 -7 2 -8 -4 -4 -9 5 -9 13 -2 27 8 14 7 19 -1 19 -8 0 -8 4 1 15 7 8 8
15 3 15 -5 0 -10 14 -10 31 0 17 -6 35 -14 40 -12 7 -12 9 1 9 13 0 13 1 0 10
-8 5 -11 10 -6 10 5 0 2 8 -5 17 -8 9 -9 14 -2 10 7 -5 9 0 6 13 -3 11 -10 17
-17 13 -7 -4 -7 -2 1 7 9 10 9 16 -2 26 -8 8 -12 23 -10 34 2 11 -2 20 -9 20
-7 0 -11 12 -10 30 1 16 -1 28 -5 26 -3 -2 -11 7 -18 20 -8 18 -8 22 0 17 7
-3 4 3 -6 15 -11 11 -16 26 -12 31 3 6 1 11 -4 11 -6 0 -11 7 -11 15 0 8 -5
15 -11 15 -5 0 -8 4 -4 9 3 5 -2 17 -11 25 -8 9 -12 16 -8 16 4 0 0 6 -10 13
-9 7 -18 22 -19 34 0 12 -5 19 -9 17 -4 -3 -8 0 -8 5 0 6 0 13 0 16 0 3 -8 13
-17 23 -10 10 -25 29 -33 42 -8 13 -23 32 -32 42 -10 10 -18 20 -18 23 0 3
-13 19 -30 35 -19 18 -25 30 -17 34 7 2 2 5 -11 5 -13 1 -21 4 -19 9 5 9 -90
102 -97 94 -3 -3 -6 3 -6 12 0 13 -5 16 -17 12 -10 -4 -14 -4 -11 0 8 7 -11
30 -26 31 -5 1 -13 8 -18 17 -5 9 -13 14 -19 11 -5 -4 -9 1 -9 9 0 9 -6 15
-12 13 -7 -1 -12 4 -11 10 2 7 0 12 -5 11 -13 -4 -52 13 -52 23 0 5 -6 9 -14
9 -8 0 -18 5 -22 12 -5 7 -3 8 6 3 9 -5 11 -4 6 4 -6 9 -11 9 -22 0 -11 -9
-14 -8 -14 5 0 10 -5 14 -10 11 -6 -3 -13 0 -16 9 -3 8 -12 12 -20 9 -8 -3
-14 0 -14 7 0 6 -4 8 -10 5 -5 -3 -10 -1 -10 5 0 7 -7 9 -15 6 -9 -3 -18 1
-21 9 -4 8 -15 15 -25 15 -10 0 -19 4 -19 9 0 5 -7 12 -16 15 -10 4 -13 2 -8
-7 6 -9 5 -9 -8 0 -8 7 -18 10 -21 6 -4 -3 -7 -1 -7 6 0 8 -8 11 -20 8 -11 -3
-23 0 -27 5 -4 7 -1 8 8 3 8 -5 11 -4 6 0 -4 5 -16 10 -27 12 -55 9 -65 11
-63 19 1 5 -13 9 -30 8 -18 -1 -35 4 -39 10 -5 7 -8 6 -8 -4 0 -13 -2 -13 -9
-1 -6 9 -26 15 -50 15 -23 0 -41 4 -41 9 0 4 -4 6 -9 2 -5 -3 -13 -1 -16 5 -5
8 -11 7 -21 -1 -9 -7 -14 -8 -14 -1 0 6 -59 10 -165 10 -118 -1 -163 -4 -158
-12 3 -6 0 -5 -8 2 -7 6 -18 12 -23 12 -6 0 -4 -5 4 -11z m1670 -1349 c0 -5
-5 -10 -11 -10 -5 0 -7 5 -4 10 3 6 8 10 11 10 2 0 4 -4 4 -10z"/>
</g>
</svg>
